<?xml version="1.0" encoding="utf-8"?>

<!DOCTYPE svg PUBLIC "-//W3C//DTD SVG 1.1//EN" "http://www.w3.org/Graphics/SVG/1.1/DTD/svg11.dtd">
<!-- Uploaded to: SVG Repo, www.svgrepo.com, Generator: SVG Repo Mixer Tools -->
<svg version="1.1" id="_x32_" xmlns="http://www.w3.org/2000/svg" xmlns:xlink="http://www.w3.org/1999/xlink" 
	 width="800px" height="800px" viewBox="0 0 512 512"  xml:space="preserve">
<style type="text/css">
<![CDATA[
	.st0{fill:#000000;}
]]>
</style>
<g>
	<path class="st0" d="M483.073,344.109l-44.938-150.703l-0.266,0.813C432.354,86.031,342.886,0,233.339,0
		C120.229,0,28.526,91.688,28.526,204.797v73.953c0,47.109,15.953,90.469,42.688,125.063V512h239.844v-43.75
		c49.109-20.172,88.625-58.859,109.891-107.375l53.641-4.359c2.906-0.234,5.547-1.766,7.203-4.172
		C483.433,349.922,483.901,346.906,483.073,344.109z M233.339,289.969c-29.016,0-56.094-2.141-79.266-5.781V244
		c0-8.844-7.156-16-16-16c-8.828,0-16,7.156-16,16v33.516c-26.156-7.141-42.344-16.766-42.344-27.391V210
		c18.781,0,31.609,0,44.344,0c7.016-0.031,13.359-0.25,19.906-1.813c4.859-1.156,10-3.281,14.438-6.938
		c3.344-2.703,6.094-6.156,8.078-9.844c3-5.563,4.469-11.422,5.375-17.781c0.891-6.375,1.203-13.391,1.203-21.625
		c0-8.844-7.156-16-16-16c-8.828,0-16,7.156-16,16c0.016,8.734-0.453,15.188-1.219,19.219c-0.563,3.047-1.266,4.594-1.563,5.063
		l-0.141,0.203l-0.406,0.203c-0.594,0.25-2.016,0.656-4.328,0.906c-2.313,0.281-5.469,0.406-9.344,0.406
		c-12.172,0-24.375,0-41.844,0c12.734-71.938,75.563-126.797,151.109-126.797c84.688,0,153.594,68.906,153.594,153.594V210h-24.859
		c-0.063-0.938-0.094-1.906-0.078-2.938c0-1.703,0.063-3.406,0.063-5.234c0-7.109,0-19.875,0-19.875c0-8.859-7.172-16.016-16-16.016
		c-8.844,0-16,7.156-16,16c0,0,0,3.188,0,7.281c0,4.078,0,9.063,0,12.609c0,1.016-0.063,2.953-0.063,5.234
		c0,2.313,0.063,5.031,0.375,8.031c0.547,4.469,1.328,9.719,4.984,15.625c1.828,2.906,4.625,5.953,8.375,8.094
		c3.734,2.172,8.188,3.219,12.281,3.188h30.922v8.125C386.933,272.094,318.026,289.969,233.339,289.969z"/>
	<path class="st0" d="M291.839,99.953c-2.078-3.078-4.828-5.891-7.953-8.047c-4.703-3.297-9.969-5.203-15.5-6.344
		c-5.547-1.125-11.5-1.563-18.313-1.563c-24,0-20,0-52,0c-8.828,0-16,7.156-16,16s7.172,16,16,16c32,0,28,0,52,0
		c6.375-0.016,10.766,0.563,13.125,1.203c1.313,0.359,1.938,0.672,2.188,0.813l0.141,0.328c0.422,1.063,0.938,4.719,0.891,10.25
		c0.016,5.531-0.328,12.797-0.344,21.406c0,8.844,7.172,16,16,16c8.844,0,16-7.156,16-16c0-7.719,0.344-14.688,0.344-21.406
		c-0.016-5.313-0.172-10.5-1.344-16.016C296.183,108.469,294.636,104.063,291.839,99.953z"/>
	<path class="st0" d="M280.073,212h-48c0-4.406,0-9.063,0-14c0-8.844-7.156-16-16-16c-8.828,0-16,7.156-16,16c0,34,0,56,0,56
		c0,8.844,7.172,16,16,16c8.844,0,16-7.156,16-16c0,0,0-3.578,0-10h48c8.844,0,16-7.156,16-16S288.917,212,280.073,212z"/>
</g>
</svg>