<?xml version="1.0" encoding="utf-8"?>
<!-- Uploaded to: SVG Repo, www.svgrepo.com, Generator: SVG Repo Mixer Tools -->
<svg width="800px" height="800px" viewBox="0 0 1024 1024" class="icon"  version="1.1" xmlns="http://www.w3.org/2000/svg"><path d="M621.05316 292.412052S350.590068 467.760703 511.112597 698.020115s79.346807 290.895004 79.346807 290.895004 585.599347-335.113642 30.593756-696.503067z" fill="#178E3B" /><path d="M592.537225 1023.523833a22.639596 22.639596 0 0 1-19.631084-10.681301c-6.255108-10.497327-3.874271-23.494533 6.287575-30.117589 4.447837-4.729208 52.735541-63.849722-83.956973-259.976588-47.248794-67.723993-64.152737-137.828823-50.343883-208.366533 11.211578-57.226666 43.623429-115.048541 93.729227-167.221339 37.379142-38.959152 71.425113-61.133403 72.821149-62.064094a22.726172 22.726172 0 0 1 24.760706 0c169.006967 110.070427 252.844898 230.205302 249.197889 357.093096C883.930041 693.583101 867.881034 745.636857 837.644403 797.062938c-23.656863 40.236147-56.036247 80.082702-96.229106 118.576509-67.843035 64.931921-134.116882 103.133534-136.908954 104.735187a24.122208 24.122208 0 0 1-11.969118 3.149199z m-12.91063-41.12355z m44.683984-650.693597c-31.524447 23.808371-116.109096 95.320059-134.852777 191.603275-11.27651 57.897629 3.246596 116.23896 43.071507 173.400694 69.260715 99.41077 104.269842 181.809377 103.945183 244.90156v2.759606a755.710157 755.710157 0 0 0 74.325405-62.334643c57.35653-55.083913 126.411627-141.670629 129.214521-241.330305C842.990465 533.92633 770.483154 430.002791 624.310579 331.749973z" fill="#203529" /><path d="M468.106022 607.981185a11.373908 11.373908 0 0 1-11.211579-13.267755c16.23298-95.406635 145.728874-173.00028 151.237265-176.257699a11.363086 11.363086 0 1 1 11.568704 19.55533c-1.450146 0.865759-125.93546 75.569933-140.404456 160.52253a11.363086 11.363086 0 0 1-11.189934 9.447594zM528.07065 736.654608a11.373908 11.373908 0 0 1-11.200756-13.365154c14.198447-79.606535 103.360795-144.873937 107.137669-147.611899A11.363086 11.363086 0 0 1 637.372717 594.129042c-0.854937 0.616853-85.493695 62.680947-98.090488 133.186191A11.363086 11.363086 0 0 1 528.07065 736.654608zM588.42487 850.220537a11.363086 11.363086 0 0 1-7.055935-20.280403c65.74357-51.999646 81.500382-137.882933 81.65189-138.737871a11.363086 11.363086 0 0 1 22.390691 3.885094c-0.670963 3.863449-17.185315 95.179373-89.952354 152.698233a11.308976 11.308976 0 0 1-7.034292 2.434947z" fill="#203529" /><path d="M528.655038 608.197625a11.363086 11.363086 0 0 1-11.103359-9.014715c-8.938961-42.335612 15.334755-91.467432 16.373666-93.534431a11.363086 11.363086 0 0 1 20.323691 10.172667c-0.21644 0.432879-21.741371 44.17535-14.458174 78.675844A11.373908 11.373908 0 0 1 528.655038 608.197625zM589.07419 727.737291A11.373908 11.373908 0 0 1 577.851789 714.556111l11.135825-68.74126a11.363086 11.363086 0 0 1 22.412334 3.636188l-11.135824 68.741259a11.363086 11.363086 0 0 1-11.189934 9.544993zM704.642186 849.949987a11.373908 11.373908 0 0 1-11.200756-13.332688c6.568946-37.325032-7.575391-60.808744-7.726899-61.046827a11.363086 11.363086 0 1 1 19.338891-11.904185c0.768361 1.25535 18.830257 31.178144 10.821986 76.922682a11.363086 11.363086 0 0 1-11.233222 9.361018zM753.925514 663.617019h-0.205618a11.363086 11.363086 0 0 1-11.157468-11.568704c0.703429-39.240524-21.925345-82.138879-22.152607-82.560937a11.363086 11.363086 0 0 1 20.053141-10.692122c1.082199 1.95878 25.626465 48.590721 24.825638 93.664295a11.363086 11.363086 0 0 1-11.363086 11.157468zM659.114088 489.772624a11.363086 11.363086 0 0 1-6.179355-20.908078c2.445769-1.58001 60.603126-38.363943 114.594018-1.536723a11.363086 11.363086 0 1 1-12.80241 18.776148c-41.707937-28.418537-88.978375 1.5259-89.454543 1.839737a11.308976 11.308976 0 0 1-6.15771 1.828916z" fill="#2FA65B" /><path d="M706.059866 373.587774s79.087079 104.129157 71.587443 220.259897c-14.393242 222.846351-106.466706 290.743496-146.85436 299.530949-2.434947-11.319798-5.410993-20.377801-5.410994-20.377801z" fill="#2FA65B" /><path d="M618.975339 983.720565a11.363086 11.363086 0 0 1-10.086092-16.590105c0.259728-0.497811 26.156742-51.058133 42.833424-119.518022 15.150781-62.36711 25.626465-152.882207-10.821987-229.945575-31.513625-66.566041-36.686535-144.495167-35.46365-198.150577 1.30946-57.832697 9.880474-99.562278 10.248421-101.358728a11.363086 11.363086 0 0 1 22.250005 4.620988c-0.086576 0.411235-8.560192 41.848623-9.739788 97.711719-1.082199 51.068955 3.744407 125.037235 33.288431 187.447632 17.488331 36.924619 26.600443 79.465849 27.054967 126.444094 0.389592 37.216812-4.588522 77.290629-14.8153 119.12843-17.315179 70.970589-43.493565 121.920503-44.597407 124.052434A11.363086 11.363086 0 0 1 618.975339 983.720565z" fill="#203529" /><path d="M751.403991 871.258479a11.373908 11.373908 0 0 1-10.821987-14.804478c15.453797-48.69894 6.233464-97.473635-27.412092-144.852293-25.550711-35.972284-55.906384-57.280776-56.209399-57.497215a11.363086 11.363086 0 1 1 12.986384-18.657105c1.374392 0.952335 33.93775 23.808371 61.761078 62.994785 37.465718 52.746363 48.027977 109.767412 30.550469 164.88379a11.363086 11.363086 0 0 1-10.854453 7.932516zM847.21104 711.839792a11.373908 11.373908 0 0 1-10.692123-7.521281c-36.578315-101.618456-94.064709-149.981914-135.859222-172.664798-44.716449-24.273716-80.623801-24.998789-80.980927-24.99879a11.363086 11.363086 0 0 1 0.281372-22.726172c1.68823 0 41.935199 0.833293 91.543186 27.747574 28.916349 15.691881 55.138022 37.086949 77.918304 63.579172 28.277851 32.866374 51.317861 73.69773 68.470711 121.368582a11.373908 11.373908 0 0 1-10.692123 15.215713z" fill="#203529" /><path d="M635.208319 211.182219S217.566206 242.468583 257.001526 605.037605s-90.904689 381.117907-90.904689 381.117907S1042.645298 969.219103 635.208319 211.182219z" fill="#178E3B" /><path d="M161.908729 1024c-12.109803 0-22.812748-9.415128-23.397136-21.535754s7.802652-22.531376 19.87999-23.656863c3.246596-0.833293 26.47058-8.051558 47.17304-49.359081 21.752193-43.417811 43.699183-131.865909 24.663308-306.835791-11.395552-104.74601 12.488573-193.518767 70.981411-263.850859 26.719485-32.119657 60.743812-60.289288 101.131466-83.697245 31.892395-18.494775 67.832213-34.10008 106.802187-46.372213 66.133161-20.821503 117.959656-24.89057 120.188985-25.0529a22.726172 22.726172 0 0 1 21.719728 11.904186c122.862016 228.592826 143.58612 415.564291 61.598748 555.784773-33.147745 56.674745-83.145324 105.254643-148.629166 144.386948-51.523479 30.799374-112.721814 55.852274-181.917597 74.46609C265.096372 1021.673273 166.497251 1023.913424 162.363252 1023.989178z m456.298249-773.382461a584.322353 584.322353 0 0 0-96.564588 21.795481c-55.527614 17.618194-132.796599 51.945536-185.640361 115.600463-50.203197 60.46244-70.59182 137.742247-60.603125 229.685846 16.871477 155.111536 5.649077 269.46747-33.364186 339.983536q-4.512768 8.148956-9.187866 14.988452a998.025262 998.025262 0 0 0 138.456498-26.654554c101.109822-27.336339 235.605474-83.837931 302.160692-197.750163 71.825526-122.916126 53.222531-290.299795-55.257064-497.649061z" fill="#203529" /><path d="M624.159071 243.496672a22.726172 22.726172 0 0 1-20.713283-32.043903l89.010841-198.042358A22.726172 22.726172 0 0 1 714.923074 0.066902a169.169297 169.169297 0 0 1 23.494533 3.744407c20.128895 4.718386 33.548159 12.315421 40.853 23.234805a34.944195 34.944195 0 0 1 4.263863 30.701977c-1.95878 6.15771-6.038669 18.970943-72.864437 101.31544-31.859929 39.251346-63.211225 76.067745-63.51424 76.435692a22.726172 22.726172 0 0 1-20.139718 7.813475 22.66124 22.66124 0 0 1-2.857004 0.183974z m102.67901-195.715631l-18.527241 41.23177c15.951608-20.626707 24.024811-32.184589 28.137165-38.537095a86.900554 86.900554 0 0 0-9.609924-2.694675z" fill="#203529" /><path d="M208.886973 996.447222a11.363086 11.363086 0 0 1-6.363328-20.789037c0.606031-0.411235 61.901764-42.043419 123.846816-109.962207 56.609813-62.064094 125.459292-159.483619 131.963307-271.144878 5.530035-94.876358 48.006333-186.419544 82.658335-246.514036 37.400786-64.845345 73.015945-106.899585 74.5202-108.663569a11.363086 11.363086 0 1 1 17.315179 14.739546c-0.465345 0.541099-36.037216 42.616984-72.366625 105.6767-33.331719 57.865163-74.173897 145.793806-79.433383 236.081641-3.062622 52.497458-19.057519 106.2178-47.55181 159.656771-22.617952 42.422188-53.125133 84.779444-90.677427 125.88135C279.045913 951.254605 217.80429 992.778568 215.228657 994.542552a11.308976 11.308976 0 0 1-6.341684 1.90467z" fill="#203529" /><path d="M271.167507 474.004989a11.363086 11.363086 0 0 1-8.906495-18.397377c32.606646-41.23177 89.82249-71.500866 169.980946-89.963176a636.008161 636.008161 0 0 1 109.778233-15.442975 11.363086 11.363086 0 1 1 0.768361 22.726172c-2.099465 0.075754-192.230951 7.651145-262.703728 96.759384a11.341442 11.341442 0 0 1-8.917317 4.317972zM259.306609 658.076162a11.363086 11.363086 0 0 1-8.852385-18.494775c27.45538-34.165012 71.57662-61.436419 131.130014-81.035037a475.36659 475.36659 0 0 1 80.829419-19.198205 11.363086 11.363086 0 0 1 2.88947 22.542199c-1.374392 0.173152-137.926221 18.29998-197.100845 91.932777a11.341442 11.341442 0 0 1-8.895673 4.253041zM257.29372 825.189281a11.363086 11.363086 0 0 1-1.937136-22.563842c56.620635-9.631568 102.884628-38.472163 131.714401-60.971073 31.567735-24.641664 49.781139-47.313726 49.975935-47.530166a11.363086 11.363086 0 0 1 17.780524 14.155159c-0.790005 0.995623-19.728482 24.641664-53.244175 50.863337-30.99417 24.273716-80.861885 55.419394-142.417345 65.884256a11.43884 11.43884 0 0 1-1.872204 0.162329z" fill="#203529" /><path d="M430.012628 950.78926a11.363086 11.363086 0 0 1-7.856762-19.576974c48.817982-46.707695 69.033453-108.988229 60.08367-185.055974-6.763742-57.51886-28.353605-101.272152-28.570045-101.726675a11.363086 11.363086 0 1 1 20.291226-10.172668c0.963157 1.926314 23.581109 47.779072 30.799374 109.204668 4.328795 36.361875 2.218507 70.624286-6.114423 101.845718-10.497327 39.316278-30.961704 73.75184-60.830387 102.332706a11.319798 11.319798 0 0 1-7.802653 3.149199zM638.649711 828.760537a11.373908 11.373908 0 0 1-11.244044-13.116248c21.871235-139.722671-13.917075-231.525585-47.735784-283.925644-36.296944-56.274331-77.517891-79.877084-77.918304-80.082702A11.363086 11.363086 0 0 1 512.919869 431.799241c1.883026 1.082199 46.534543 26.676197 85.872465 87.593161 22.953434 35.57187 39.348744 75.916237 48.69894 119.940079 11.65528 54.683499 12.456107 115.189227 2.359193 179.818132a11.363086 11.363086 0 0 1-11.200756 9.609924z" fill="#203529" /><path d="M340.09274 512.011807a11.373908 11.373908 0 0 1-10.886918-14.642148c15.875855-52.713897 73.232384-92.9284 75.667331-94.61663a11.363086 11.363086 0 0 1 12.986384 18.678749c-0.530277 0.367948-53.287463 37.454896-66.858234 82.496005a11.363086 11.363086 0 0 1-10.908563 8.084024zM334.357087 685.931956a11.363086 11.363086 0 0 1-8.960605-18.343268l55.549258-71.425112a11.363086 11.363086 0 1 1 17.942854 13.949541l-55.549258 71.425112a11.341442 11.341442 0 0 1-8.982249 4.393727zM389.960455 897.328645a11.363086 11.363086 0 0 1-8.863207-18.462309c31.178144-39.078194 29.998547-76.403226 29.987726-76.771174a11.363086 11.363086 0 0 1 22.726172-1.136309c0.097398 1.85056 1.969602 45.9718-34.944195 92.105929a11.341442 11.341442 0 0 1-8.906496 4.263863zM562.33306 715.627488a11.363086 11.363086 0 0 1-9.85883-16.99052c25.702219-45.062753 26.665375-108.955763 26.665376-109.59426a11.363086 11.363086 0 1 1 22.726172 0.238084c0 2.857005-1.082199 70.4836-29.652244 120.611043a11.363086 11.363086 0 0 1-9.880474 5.735653zM680.000522 519.998433a11.363086 11.363086 0 0 1-10.129379-6.200998c-12.7483-24.977145-34.251588-41.902733-63.849722-50.300595a139.00842 139.00842 0 0 0-42.519586-5.216197 11.363086 11.363086 0 0 1-1.655764-22.661241 159.332111 159.332111 0 0 1 49.553877 5.789763c35.874886 9.956228 63.103005 31.383762 78.751598 62.053272a11.363086 11.363086 0 0 1-10.107736 16.535996z" fill="#2FA65B" /></svg>