<?xml version="1.0" encoding="utf-8"?>

<!DOCTYPE svg PUBLIC "-//W3C//DTD SVG 1.0//EN" "http://www.w3.org/TR/2001/REC-SVG-20010904/DTD/svg10.dtd">
<!-- Uploaded to: SVG Repo, www.svgrepo.com, Generator: SVG Repo Mixer Tools -->
<svg version="1.0" id="Layer_1" xmlns="http://www.w3.org/2000/svg" xmlns:xlink="http://www.w3.org/1999/xlink" 
	 width="800px" height="800px" viewBox="0 0 64 64" enable-background="new 0 0 64 64" xml:space="preserve">
<path fill="#231F20" d="M60,0H4C1.789,0,0,1.789,0,4v40c0,2.211,1.789,4,4,4h8v15c0,0.404,0.243,0.77,0.617,0.924
	C12.741,63.976,12.871,64,13,64c0.26,0,0.516-0.102,0.707-0.293L29.414,48H60c2.211,0,4-1.789,4-4V4C64,1.789,62.211,0,60,0z M15,14
	h16c0.553,0,1,0.447,1,1s-0.447,1-1,1H15c-0.553,0-1-0.447-1-1S14.447,14,15,14z M45,34H15c-0.553,0-1-0.447-1-1s0.447-1,1-1h30
	c0.553,0,1,0.447,1,1S45.553,34,45,34z M14,27c0-0.553,0.447-1,1-1h24c0.553,0,1,0.447,1,1s-0.447,1-1,1H15
	C14.447,28,14,27.553,14,27z M49,22H15c-0.553,0-1-0.447-1-1s0.447-1,1-1h34c0.553,0,1,0.447,1,1S49.553,22,49,22z"/>
</svg>